<?xml version="1.0" standalone="yes"?>

<svg version="1.1" viewBox="0.0 0.0 436.96062992125985 276.56167979002623" fill="none" stroke="none" stroke-linecap="square" stroke-miterlimit="10" xmlns="http://www.w3.org/2000/svg" xmlns:xlink="http://www.w3.org/1999/xlink"><clipPath id="p.0"><path d="m0 0l436.96063 0l0 276.56168l-436.96063 0l0 -276.56168z" clip-rule="nonzero"></path></clipPath><g clip-path="url(#p.0)"><path fill="#000000" fill-opacity="0.0" d="m0 0l436.96063 0l0 276.56168l-436.96063 0z" fill-rule="nonzero"></path><path fill="#000000" fill-opacity="0.0" d="m-5.2365074 32.183727l442.20474 0l0 211.74803l-442.20474 0z" fill-rule="nonzero"></path><path fill="#ffffff" d="m106.49787 147.08899q0 8.515625 -2.953125 15.65625q-2.953125 7.140625 -8.15625 12.3125q-5.1875 5.15625 -12.328125 8.078125q-7.140625 2.921875 -15.53125 2.921875l-45.57813 0q-1.828125 0 -3.390625 -0.640625q-1.546875 -0.65625 -2.6875 -1.796875q-1.140625 -1.140625 -1.796875 -2.6875q-0.640625 -1.5625 -0.640625 -3.375l0 -76.12501q0 -1.75 0.640625 -3.296875q0.65625 -1.5625 1.796875 -2.734375q1.140625 -1.171875 2.6875 -1.8125q1.5625 -0.65625 3.390625 -0.65625l45.57813 0q8.390625 0 15.53125 2.921875q7.140625 2.921875 12.328125 8.09375q5.203125 5.15625 8.15625 12.328125q2.953125 7.171875 2.953125 15.625008l0 15.1875zm-16.875 -15.1875q0 -4.9375076 -1.59375 -9.031258q-1.59375 -4.09375 -4.515625 -6.984375q-2.921875 -2.890625 -6.984375 -4.46875q-4.0625 -1.59375 -9.0 -1.59375l-37.20313 0l0 59.343758l37.20313 0q4.9375 0 9.0 -1.578125q4.0625 -1.59375 6.984375 -4.484375q2.921875 -2.890625 4.515625 -6.953125q1.59375 -4.0625 1.59375 -9.0625l0 -15.1875zm108.19883 30.453125q0 4.34375 -1.109375 7.828125q-1.09375 3.46875 -2.921875 6.109375q-1.8125 2.625 -4.21875 4.484375q-2.40625 1.84375 -5.03125 3.015625q-2.625 1.15625 -5.328125 1.71875q-2.6875 0.546875 -5.09375 0.546875l-30.453125 0q-3.515625 0 -7.671875 -1.234375q-4.15625 -1.234375 -7.703125 -4.0625q-3.5312424 -2.828125 -5.9062424 -7.328125q-2.359375 -4.515625 -2.359375 -11.078125l0 -22.859375q0 -6.5 2.359375 -11.0q2.375 -4.5156326 5.9062424 -7.3437576q3.546875 -2.828125 7.703125 -4.0625q4.15625 -1.234375 7.671875 -1.234375l30.453125 0q6.484375 0 11.03125 2.34375q4.546875 2.328125 7.34375 5.875q2.796875 3.53125 4.0625 7.6875076q1.265625 4.15625 1.265625 7.734375l0 22.859375zm-16.890625 -22.734375q0 -3.5 -1.75 -5.1875q-1.75 -1.6875 -5.0625 -1.6875l-30.328125 0q-3.375 0 -5.140625 1.71875q-1.75 1.71875 -1.75 5.03125l0 22.859375q0 3.3125 1.75 5.0625q1.765625 1.75 5.140625 1.75l30.328125 0q3.4375 0 5.125 -1.75q1.6875 -1.75 1.6875 -5.0625l0 -22.734375zm147.05635 -23.765633q-4.015625 9.03125 -8.703125 17.765633q-4.671875 8.734375 -9.78125 16.53125q-5.09375 7.78125 -10.421875 14.375q-5.3125 6.59375 -10.546875 11.375q-5.21875 4.765625 -10.1875 7.46875q-4.96875 2.6875 -9.390625 2.6875q-1.8125 0 -3.375 -0.640625q-1.5625 -0.65625 -2.734375 -1.796875q-1.15625 -1.140625 -1.8125 -2.6875q-0.640625 -1.5625 -0.640625 -3.375l0 -31.5l-33.515625 37.46875q-1.296875 1.296875 -2.828125 1.921875q-1.53125 0.609375 -3.140625 0.609375q-1.765625 0 -3.296875 -0.640625q-1.515625 -0.65625 -2.6875 -1.796875q-1.171875 -1.140625 -1.859375 -2.6875q-0.671875 -1.5625 -0.671875 -3.375l0 -61.703133l16.890625 0l0 40.000008l33.640625 -37.593758q1.8125 -1.828125 4.3125 -2.3125q2.5 -0.484375 4.90625 0.5625q2.40625 0.96875 3.796875 3.078125q1.390625 2.109375 1.390625 4.640625l0 40.140633q5.453125 -5.265625 9.875 -11.109375q4.421875 -5.84375 8.21875 -12.046875q3.796875 -6.203125 7.140625 -12.59375q3.34375 -6.4062576 6.53125 -12.765633l18.890625 0zm83.94318 70.20313l-16.875 0l0 -38.96875q0 -3.3125 -1.140625 -5.9375q-1.140625 -2.625 -3.09375 -4.5q-1.9375 -1.890625 -4.578125 -2.890625q-2.625 -1.015625 -5.671875 -1.015625l-29.546875 0l0 53.3125l-16.890625 0l0 -61.828133q0 -1.75 0.640625 -3.265625q0.65625 -1.53125 1.828125 -2.671875q1.171875 -1.140625 2.71875 -1.78125q1.5625 -0.65625 3.328125 -0.65625l38.046875 0q3.1875 0 6.71875 0.71875q3.546875 0.71875 7.015625 2.3125q3.484375 1.578125 6.625 4.015625q3.15625 2.4375 5.578125 5.9218826q2.4375 3.46875 3.859375 8.015625q1.4375 4.53125 1.4375 10.25l0 38.96875z" fill-rule="nonzero"></path></g></svg>

